<svg width="200" height="200" viewBox="0 0 200 200" fill="none" xmlns="http://www.w3.org/2000/svg">
<ellipse cx="97" cy="90" rx="3" ry="6" fill="#2C2C34"/>
<ellipse cx="65" cy="90" rx="3" ry="6" fill="#2C2C34"/>
<path d="M23.7469 83.8657C2.45355 128.887 19.1349 183.222 83.7343 189.922C151.234 196.922 187.309 151.922 191.734 99.9218C196.16 47.9216 153.734 15.7055 118.734 11.9218C90.2165 8.83888 69.9045 12.3363 46.7469 40.3657" stroke="#FED237" stroke-width="8" stroke-linecap="round"/>
<path d="M81.4872 188.556L81.2809 190.545L81.2809 190.545L81.4872 188.556ZM116.487 10.5561L116.702 8.56771L116.702 8.56771L116.487 10.5561ZM23.3078 83.3551C23.7801 82.3566 23.3534 81.1643 22.3549 80.692C21.3564 80.2198 20.1641 80.6464 19.6918 81.6449L23.3078 83.3551ZM42.958 37.7262C42.2545 38.5777 42.3745 39.8383 43.226 40.5419C44.0775 41.2454 45.3382 41.1254 46.0417 40.2739L42.958 37.7262ZM80.8207 95.8277C81.2778 94.8221 80.8331 93.6364 79.8276 93.1794C78.822 92.7223 77.6363 93.1669 77.1792 94.1725L80.8207 95.8277ZM78.9999 119.5C80.1045 119.5 80.9999 118.605 81 117.5C81 116.396 80.1046 115.5 79 115.5L78.9999 119.5ZM138 91.5L136 91.5L136 91.5L138 91.5ZM146 83L146 85H146V83ZM138.648 110.867C138.023 109.957 136.778 109.726 135.867 110.352C134.957 110.977 134.726 112.222 135.352 113.133L138.648 110.867ZM136.794 122.884C137.282 121.894 136.875 120.695 135.884 120.206C134.894 119.718 133.695 120.125 133.206 121.116L136.794 122.884ZM90.9999 160.789L90.7631 158.803L90.7631 158.803L90.9999 160.789ZM128.991 75.1896C129.096 74.09 128.289 73.1137 127.19 73.009C126.09 72.9043 125.114 73.7108 125.009 74.8104L128.991 75.1896ZM130.5 96.5H128.5C128.5 97.6046 129.395 98.5 130.5 98.5V96.5ZM138 96.5V98.5C138.53 98.5 139.039 98.2893 139.414 97.9142C139.789 97.5391 140 97.0304 140 96.5L138 96.5ZM141.952 114.066C141.713 112.988 140.644 112.308 139.566 112.548C138.488 112.787 137.808 113.856 138.048 114.934L141.952 114.066ZM137.5 128.5L138.952 129.875L138.952 129.875L137.5 128.5ZM131.169 130.877C130.272 130.232 129.022 130.435 128.377 131.331C127.731 132.228 127.935 133.478 128.831 134.123L131.169 130.877ZM36.9999 51.5L37.0395 53.4996L36.9999 51.5ZM41.5 76.5L41.4167 74.5017L41.4167 74.5017L41.5 76.5ZM54.5 76C54.5 74.8955 53.6046 74 52.5001 74C51.3955 73.9999 50.5 74.8953 50.5 75.9999L54.5 76ZM90.9999 73.0001L90.8392 71.0065L90.8392 71.0065L90.9999 73.0001ZM122 70.5L123.223 68.9174L123.152 68.8625L123.076 68.8141L122 70.5ZM80.9999 52.5L81.3379 50.5287L81.3379 50.5287L80.9999 52.5ZM59.4999 50.406L59.6593 52.3997L59.8021 52.3883L59.9418 52.3566L59.4999 50.406ZM119 33.5L119.782 31.6593L119.782 31.6593L119 33.5ZM138.691 86.9064C139.526 87.6292 140.79 87.5381 141.512 86.7029C142.235 85.8676 142.144 84.6046 141.309 83.8818L138.691 86.9064ZM146.975 82.84C146.887 83.941 147.708 84.9052 148.809 84.9935C149.91 85.0819 150.874 84.261 150.963 83.16L146.975 82.84ZM187.494 98.3865C185.315 123.997 175.353 147.749 157.773 164.222C140.232 180.658 114.932 190.014 81.6935 186.567L81.2809 190.545C115.543 194.098 142.03 184.454 160.508 167.141C178.946 149.863 189.234 125.116 191.48 98.7257L187.494 98.3865ZM116.272 12.5445C150.484 16.243 191.805 47.7402 187.494 98.3865L191.48 98.7257C196.021 45.3716 152.49 12.4366 116.702 8.56771L116.272 12.5445ZM81.6935 186.567C49.9754 183.277 30.3263 168.363 21.0882 149.036C11.8112 129.629 12.8677 105.429 23.3078 83.3551L19.6918 81.6449C8.83857 104.593 7.58911 130.071 17.4793 150.762C27.4084 171.533 48.3997 187.135 81.2809 190.545L81.6935 186.567ZM46.0417 40.2739C57.4596 26.4539 68.0411 18.841 79.1375 15.001C90.2622 11.1511 102.122 11.0149 116.272 12.5445L116.702 8.56771C102.334 7.01444 89.7795 7.08543 77.8294 11.2209C65.8509 15.3662 54.6977 23.5167 42.958 37.7262L46.0417 40.2739ZM87.4999 159C76.2913 159 67.8815 149.126 62.1856 134.764C56.5632 120.588 53.9997 102.972 53.9997 89.5H49.9997C49.9997 103.366 52.6218 121.5 58.4673 136.239C64.2393 150.793 73.5796 163 87.4999 163V159ZM77.1792 94.1725C76.0037 96.7587 74.0558 99.3639 72.1206 102.433C70.3188 105.292 68.5 108.611 68.5 112H72.5C72.5 109.889 73.6812 107.459 75.5043 104.567C77.1941 101.886 79.4962 98.7415 80.8207 95.8277L77.1792 94.1725ZM68.5 112C68.5 116.113 71.7823 117.954 74.1343 118.715C75.37 119.115 76.5777 119.308 77.4573 119.403C77.9022 119.451 78.2754 119.475 78.5423 119.487C78.676 119.493 78.7838 119.497 78.8613 119.498C78.9001 119.499 78.9314 119.5 78.9546 119.5C78.9663 119.5 78.9759 119.5 78.9835 119.5C78.9872 119.5 78.9905 119.5 78.9933 119.5C78.9946 119.5 78.9959 119.5 78.997 119.5C78.9975 119.5 78.9983 119.5 78.9985 119.5C78.9992 119.5 78.9999 119.5 79 117.5C79 115.5 79.0006 115.5 79.0012 115.5C79.0013 115.5 79.0019 115.5 79.0022 115.5C79.0028 115.5 79.0032 115.5 79.0036 115.5C79.0043 115.5 79.0044 115.5 79.0041 115.5C79.0035 115.5 79.001 115.5 78.9965 115.5C78.9876 115.5 78.9712 115.5 78.9477 115.499C78.9007 115.498 78.8258 115.496 78.7271 115.491C78.5292 115.482 78.2383 115.464 77.8863 115.426C77.1723 115.349 76.2549 115.197 75.3656 114.91C73.4676 114.295 72.5 113.387 72.5 112H68.5ZM76.6641 132.61C76.4718 132.898 76.2533 133.055 76.1686 133.113C76.0663 133.182 75.9856 133.22 75.9559 133.233C75.8974 133.26 75.884 133.26 75.9535 133.239C76.0835 133.202 76.3196 133.148 76.6827 133.081C77.3959 132.95 78.4208 132.804 79.6787 132.651C82.1844 132.348 85.4971 132.035 88.8282 131.781C92.1605 131.526 95.4811 131.332 98.0048 131.263C99.2728 131.228 100.303 131.227 101.021 131.26C101.387 131.277 101.617 131.301 101.736 131.32C101.799 131.331 101.772 131.331 101.696 131.304C101.655 131.29 101.564 131.256 101.45 131.191C101.345 131.131 101.136 130.996 100.938 130.749L104.062 128.251C103.664 127.754 103.148 127.575 103.009 127.526C102.787 127.449 102.568 127.404 102.396 127.375C102.044 127.316 101.631 127.284 101.206 127.264C100.341 127.224 99.1963 127.229 97.8957 127.264C95.2823 127.336 91.8908 127.535 88.5233 127.792C85.1547 128.05 81.78 128.368 79.198 128.68C77.9121 128.836 76.7931 128.994 75.9607 129.147C75.5509 129.222 75.1638 129.304 74.845 129.396C74.6901 129.441 74.4959 129.503 74.3032 129.591C74.2064 129.635 74.0704 129.703 73.9248 129.801C73.7967 129.888 73.5469 130.074 73.3359 130.391L76.6641 132.61ZM138 91.5C140 91.5 140 91.5009 140 91.5017C140 91.502 140 91.5028 140 91.5033C140 91.5042 140 91.5051 140 91.5058C140 91.5073 140 91.5083 140 91.5087C140 91.5097 140 91.5088 140 91.5059C140 91.5003 140 91.4872 140.001 91.4672C140.002 91.4272 140.005 91.3597 140.011 91.2689C140.023 91.0865 140.049 90.8138 140.101 90.4818C140.207 89.8078 140.414 88.9417 140.81 88.1016C141.203 87.2664 141.755 86.5096 142.531 85.9602C143.288 85.4239 144.376 85 146 85L146 81C143.624 81 141.712 81.6386 140.219 82.6961C138.745 83.7403 137.797 85.1086 137.19 86.3984C136.586 87.6832 136.293 88.9422 136.149 89.8619C136.076 90.3267 136.039 90.7181 136.02 91.0006C136.011 91.1422 136.006 91.2573 136.003 91.3418C136.002 91.3841 136.001 91.4187 136 91.4452C136 91.4585 136 91.4697 136 91.4789C136 91.4834 136 91.4875 136 91.491C136 91.4928 136 91.4944 136 91.4959C136 91.4966 136 91.4977 136 91.498C136 91.499 136 91.5 138 91.5ZM146 85C147.405 85 148.387 85.3447 149.097 85.8426C149.815 86.3464 150.397 87.107 150.828 88.1635C151.716 90.3442 151.844 93.5111 151.333 97.0543C150.829 100.546 149.742 104.149 148.46 107.041C147.82 108.487 147.149 109.714 146.508 110.643C145.835 111.617 145.31 112.093 145.019 112.257L146.98 115.743C148.065 115.133 149.008 114.061 149.799 112.916C150.62 111.728 151.406 110.267 152.118 108.661C153.539 105.451 154.733 101.497 155.292 97.6256C155.843 93.8055 155.815 89.8023 154.532 86.6539C153.876 85.0459 152.868 83.6021 151.393 82.5677C149.91 81.5273 148.095 81 146 81V85ZM145.019 112.257C142.975 113.407 141.478 113.019 140.425 112.421C139.854 112.097 139.394 111.692 139.072 111.359C138.914 111.195 138.797 111.056 138.724 110.964C138.687 110.919 138.663 110.886 138.65 110.869C138.643 110.86 138.64 110.855 138.64 110.855C138.64 110.855 138.64 110.856 138.642 110.858C138.642 110.859 138.643 110.86 138.644 110.862C138.645 110.862 138.646 110.863 138.646 110.864C138.647 110.865 138.647 110.866 138.647 110.866C138.648 110.867 138.648 110.867 137 112C135.352 113.133 135.352 113.133 135.353 113.134C135.353 113.135 135.354 113.135 135.354 113.136C135.355 113.137 135.356 113.139 135.357 113.14C135.359 113.143 135.361 113.146 135.363 113.15C135.368 113.156 135.374 113.165 135.381 113.174C135.394 113.193 135.411 113.216 135.431 113.244C135.473 113.3 135.528 113.373 135.599 113.461C135.738 113.636 135.938 113.871 136.193 114.136C136.7 114.661 137.458 115.336 138.45 115.9C140.522 117.075 143.525 117.687 146.98 115.743L145.019 112.257ZM133.206 121.116C131.593 124.388 129.84 127.498 127.973 130.425L131.345 132.576C133.292 129.523 135.117 126.286 136.794 122.884L133.206 121.116ZM127.973 130.425C117.487 146.863 103.591 157.274 90.7631 158.803L91.2367 162.775C105.724 161.048 120.522 149.544 131.345 132.576L127.973 130.425ZM90.7631 158.803C89.6664 158.934 88.5779 159 87.4999 159V163C88.7414 163 89.9881 162.924 91.2367 162.775L90.7631 158.803ZM127.716 131.026C126.683 135.26 127.271 140.063 128.683 144.745C130.103 149.453 132.41 154.213 135.024 158.453C137.636 162.691 140.598 166.481 143.373 169.233C144.759 170.607 146.139 171.764 147.444 172.588C148.696 173.378 150.116 174.016 151.523 174L151.477 170C151.23 170.003 150.613 169.858 149.58 169.206C148.6 168.587 147.448 167.641 146.19 166.393C143.678 163.903 140.907 160.375 138.429 156.354C135.952 152.335 133.81 147.892 132.513 143.589C131.206 139.259 130.805 135.241 131.602 131.974L127.716 131.026ZM89.8678 190.459C98.8126 182.073 97.4717 168.739 92.7675 159.853L89.2323 161.725C93.5281 169.839 94.1873 180.927 87.1321 187.541L89.8678 190.459ZM73.3359 130.391C73.0512 130.818 72.9629 131.291 72.9323 131.455C72.8834 131.716 72.8524 132.005 72.8339 132.299C72.7966 132.893 72.803 133.633 72.8696 134.456C73.0024 136.099 73.3845 138.202 74.2354 140.283C75.0869 142.366 76.4432 144.509 78.5705 146.097C80.7271 147.707 83.5371 148.64 87.0799 148.499L86.92 144.502C84.2128 144.61 82.3225 143.906 80.9632 142.892C79.5745 141.855 78.5992 140.387 77.9379 138.769C77.276 137.151 76.9643 135.467 76.8566 134.134C76.803 133.47 76.8025 132.925 76.8261 132.55C76.838 132.359 76.8543 132.243 76.864 132.191C76.892 132.042 76.8735 132.295 76.6641 132.61L73.3359 130.391ZM87.0799 148.499C94.2682 148.211 98.858 143.586 101.457 139.209C102.763 137.01 103.62 134.795 104.102 133.037C104.342 132.161 104.501 131.357 104.567 130.695C104.599 130.369 104.614 130.024 104.589 129.696C104.576 129.532 104.55 129.328 104.492 129.113C104.439 128.917 104.325 128.58 104.062 128.251L100.938 130.749C100.725 130.483 100.652 130.236 100.631 130.158C100.617 130.105 100.609 130.066 100.606 130.043C100.602 130.02 100.601 130.006 100.601 130.005C100.601 130.003 100.603 130.027 100.601 130.082C100.6 130.136 100.595 130.208 100.586 130.299C100.548 130.678 100.444 131.253 100.245 131.979C99.8484 133.424 99.1243 135.303 98.0178 137.166C95.7919 140.915 92.2317 144.289 86.92 144.502L87.0799 148.499ZM53.9997 89.5C53.9997 75.6006 56.002 64.0704 60.696 56.5601L57.304 54.4401C51.9979 62.9298 49.9997 75.3996 49.9997 89.5H53.9997ZM125.009 74.8104C124.746 77.5721 124.835 79.6108 125.16 81.3314C125.483 83.0472 126.027 84.3594 126.525 85.5716C127.455 87.8401 128.5 90.3281 128.5 96.5H132.5C132.5 89.6718 131.295 86.6599 130.225 84.0534C129.723 82.8281 129.33 81.8591 129.09 80.5905C128.852 79.3267 128.754 77.6779 128.991 75.1896L125.009 74.8104ZM130.5 98.5H138V94.5H130.5V98.5ZM140 96.5L140 91.5L136 91.5L136 96.5L140 96.5ZM140 114.5C138.048 114.934 138.048 114.934 138.048 114.934C138.048 114.934 138.048 114.934 138.048 114.934C138.048 114.935 138.048 114.935 138.048 114.936C138.048 114.937 138.049 114.939 138.049 114.941C138.05 114.946 138.052 114.952 138.054 114.961C138.058 114.979 138.063 115.005 138.071 115.039C138.086 115.106 138.108 115.205 138.137 115.332C138.194 115.585 138.277 115.949 138.379 116.394C138.583 117.282 138.867 118.494 139.182 119.786C139.795 122.299 140.579 125.332 141.143 126.743L144.857 125.257C144.421 124.168 143.705 121.451 143.068 118.839C142.758 117.568 142.479 116.374 142.277 115.497C142.176 115.058 142.095 114.7 142.039 114.451C142.011 114.327 141.989 114.23 141.974 114.165C141.967 114.132 141.961 114.107 141.958 114.091C141.956 114.082 141.955 114.076 141.954 114.072C141.953 114.07 141.953 114.068 141.953 114.067C141.952 114.067 141.952 114.067 141.952 114.066C141.952 114.066 141.952 114.066 141.952 114.066C141.952 114.066 141.952 114.066 140 114.5ZM141.143 126.743C141.193 126.867 141.089 126.689 141.159 126.349C141.248 125.922 141.52 125.641 141.721 125.514C141.86 125.425 141.918 125.438 141.752 125.47C141.607 125.498 141.399 125.521 141.091 125.544C140.562 125.583 139.644 125.618 138.839 125.762C138.032 125.907 136.902 126.223 136.048 127.125L138.952 129.875C138.918 129.912 139.01 129.795 139.544 129.7C140.08 129.604 140.622 129.59 141.388 129.533C141.728 129.508 142.126 129.471 142.51 129.397C142.874 129.327 143.385 129.195 143.865 128.89C144.406 128.547 144.907 127.977 145.076 127.159C145.228 126.428 145.057 125.758 144.857 125.257L141.143 126.743ZM136.048 127.125C135.213 128.006 134.817 129.189 134.586 130.104C134.346 131.056 134.199 132.108 134.076 132.87C134.01 133.277 133.952 133.608 133.889 133.877C133.858 134.008 133.83 134.108 133.806 134.181C133.781 134.257 133.767 134.283 133.771 134.275C133.774 134.271 133.814 134.191 133.913 134.087C134.019 133.976 134.202 133.828 134.472 133.735C135.074 133.526 135.504 133.77 135.529 133.785L133.471 137.215C133.996 137.53 134.836 137.842 135.781 137.514C136.663 137.209 137.116 136.517 137.329 136.104C137.733 135.318 137.906 134.244 138.025 133.507C138.169 132.615 138.28 131.815 138.465 131.082C138.659 130.313 138.854 129.978 138.952 129.875L136.048 127.125ZM135.529 133.785C134.581 133.216 133.495 132.493 132.631 131.901C132.202 131.607 131.835 131.349 131.575 131.166C131.445 131.074 131.343 131.001 131.273 130.952C131.238 130.927 131.211 130.908 131.194 130.895C131.185 130.889 131.178 130.884 131.174 130.881C131.172 130.879 131.171 130.878 131.17 130.878C131.169 130.877 131.169 130.877 131.169 130.877C131.169 130.877 131.168 130.877 131.168 130.877C131.168 130.877 131.168 130.877 131.168 130.877C131.169 130.877 131.169 130.877 130 132.5C128.831 134.123 128.831 134.123 128.831 134.123C128.832 134.123 128.832 134.123 128.832 134.123C128.832 134.123 128.832 134.124 128.832 134.124C128.833 134.124 128.833 134.124 128.834 134.125C128.835 134.126 128.838 134.128 128.84 134.129C128.846 134.133 128.853 134.139 128.863 134.146C128.883 134.16 128.912 134.181 128.95 134.208C129.024 134.261 129.133 134.338 129.268 134.434C129.54 134.626 129.922 134.893 130.369 135.199C131.255 135.807 132.419 136.584 133.471 137.215L135.529 133.785ZM36.9603 49.5003C31.9077 49.6004 28.0825 51.5952 25.5612 54.7575C23.0849 57.8632 22 61.9213 22 66H26C26 62.5786 26.915 59.4758 28.6888 57.2511C30.4175 55.0829 33.0923 53.5777 37.0395 53.4996L36.9603 49.5003ZM22 66C22 70.6675 24.7015 73.9788 28.4249 75.9675C32.0815 77.9206 36.841 78.6958 41.5832 78.4982L41.4167 74.5017C37.1381 74.68 33.1476 73.9552 30.3094 72.4393C27.5381 70.9591 26 68.8324 26 66H22ZM41.5832 78.4982C47.0844 78.269 49.8405 78.1438 51.2233 78.0757C51.9131 78.0417 52.2691 78.0216 52.4566 78.0095C52.5471 78.0037 52.6145 77.9987 52.667 77.9937C52.6869 77.9919 52.7406 77.9867 52.8042 77.9768C52.8246 77.9737 52.9177 77.9596 53.0326 77.9278C53.0751 77.916 53.2344 77.8721 53.4211 77.7752C53.5096 77.7293 53.7115 77.6176 53.9168 77.4116C54.0256 77.3024 54.1666 77.1356 54.284 76.9041C54.3434 76.7757 54.4171 76.5698 54.4377 76.4953C54.4843 76.2496 54.5 76 52.5 76C50.5 75.9999 50.5156 75.7503 50.5623 75.5046C50.5829 75.4301 50.6566 75.2242 50.716 75.0958C50.8333 74.8643 50.9744 74.6975 51.0832 74.5884C51.2884 74.3823 51.4903 74.2706 51.5788 74.2248C51.7654 74.1279 51.9246 74.0841 51.9667 74.0724C52.081 74.0408 52.1727 74.027 52.1904 74.0242C52.2245 74.0189 52.2508 74.0158 52.2626 74.0144C52.2763 74.0129 52.2861 74.0119 52.29 74.0115C52.2995 74.0106 52.281 74.0125 52.1996 74.0178C52.0433 74.0278 51.7119 74.0468 51.0266 74.0805C49.6594 74.1478 46.9156 74.2726 41.4167 74.5017L41.5832 78.4982ZM91.1607 74.9936L122.161 72.4935L121.839 68.5064L90.8392 71.0065L91.1607 74.9936ZM122 70.5C123.076 68.8141 123.076 68.8139 123.075 68.8137C123.075 68.8135 123.075 68.8132 123.074 68.8129C123.073 68.8123 123.072 68.8114 123.07 68.8103C123.067 68.8082 123.062 68.8051 123.056 68.8011C123.043 68.7932 123.025 68.7817 123.001 68.7668C122.954 68.7369 122.885 68.6931 122.794 68.6363C122.613 68.5227 122.347 68.357 122.003 68.1458C121.316 67.7233 120.318 67.1185 119.067 66.3844C116.565 64.9167 113.047 62.9284 108.973 60.8445C100.877 56.7024 90.4025 52.0827 81.3379 50.5287L80.662 54.4712C89.0974 55.9173 99.1225 60.2977 107.151 64.4055C111.141 66.4466 114.591 68.3958 117.042 69.8343C118.268 70.5533 119.242 71.1438 119.909 71.5534C120.242 71.7582 120.498 71.9177 120.669 72.0253C120.755 72.0791 120.82 72.1199 120.863 72.1469C120.884 72.1604 120.9 72.1705 120.91 72.177C120.915 72.1803 120.919 72.1827 120.921 72.1841C120.922 72.1849 120.923 72.1854 120.924 72.1856C120.924 72.1858 120.924 72.1858 120.924 72.1859C120.924 72.1859 120.924 72.1858 122 70.5ZM81.3379 50.5287C72.5356 49.0197 67.0748 48.4836 63.7805 48.3301C62.1318 48.2533 61.0132 48.2718 60.2811 48.3148C59.9144 48.3363 59.6414 48.3642 59.4447 48.3901C59.3462 48.4031 59.2662 48.4156 59.2027 48.4268C59.1709 48.4324 59.1431 48.4377 59.1191 48.4425C59.1071 48.4449 59.0961 48.4472 59.0859 48.4493C59.0808 48.4504 59.0759 48.4515 59.0713 48.4525C59.069 48.453 59.0667 48.4535 59.0645 48.454C59.0634 48.4543 59.0618 48.4546 59.0612 48.4547C59.0596 48.4551 59.058 48.4555 59.4999 50.406C59.9418 52.3566 59.9403 52.357 59.9387 52.3573C59.9382 52.3574 59.9367 52.3578 59.9357 52.358C59.9338 52.3584 59.9319 52.3588 59.93 52.3592C59.9264 52.36 59.923 52.3608 59.9199 52.3614C59.9137 52.3627 59.9087 52.3638 59.9048 52.3646C59.897 52.3661 59.8938 52.3667 59.8956 52.3663C59.8992 52.3657 59.9223 52.3617 59.9673 52.3558C60.0577 52.3439 60.2339 52.3244 60.5156 52.3079C61.0804 52.2747 62.0556 52.2541 63.5944 52.3258C66.675 52.4693 71.9642 52.9801 80.662 54.4712L81.3379 50.5287ZM59.4999 50.406C59.3406 48.4124 59.3406 48.4124 59.3406 48.4124C59.3405 48.4124 59.3405 48.4124 59.3404 48.4124C59.3401 48.4124 59.3397 48.4125 59.3391 48.4125C59.338 48.4126 59.3362 48.4127 59.3338 48.4129C59.3289 48.4133 59.3214 48.4139 59.3114 48.4147C59.2913 48.4163 59.261 48.4187 59.2208 48.4218C59.1404 48.4281 59.0203 48.4373 58.8629 48.4492C58.5482 48.473 58.0844 48.5073 57.4908 48.5493C56.3035 48.6333 54.5973 48.7477 52.526 48.8694C48.3815 49.113 42.784 49.385 36.9603 49.5003L37.0395 53.4996C42.9316 53.3829 48.5841 53.108 52.7607 52.8625C54.8499 52.7398 56.572 52.6243 57.7729 52.5393C58.3734 52.4969 58.8436 52.4621 59.1644 52.4378C59.3248 52.4257 59.4479 52.4162 59.5311 52.4097C59.5728 52.4065 59.6045 52.404 59.6259 52.4023C59.6367 52.4015 59.6448 52.4008 59.6504 52.4004C59.6532 52.4002 59.6553 52.4 59.6568 52.3999C59.6575 52.3998 59.6581 52.3998 59.6585 52.3997C59.6587 52.3997 59.6589 52.3997 59.659 52.3997C59.6592 52.3997 59.6593 52.3997 59.4999 50.406ZM59.4999 50.406C61.2473 51.3791 61.2468 51.3799 61.2464 51.3806C61.2464 51.3807 61.2461 51.3812 61.246 51.3814C61.2459 51.3816 61.246 51.3813 61.2464 51.3806C61.2473 51.379 61.2493 51.3755 61.2525 51.3699C61.2588 51.3588 61.2697 51.3398 61.2852 51.3131C61.3161 51.2598 61.3654 51.176 61.4332 51.0644C61.5686 50.8412 61.7775 50.5068 62.0603 50.0819C62.6263 49.2315 63.4866 48.0216 64.645 46.6158C66.9658 43.7993 70.4592 40.2258 75.1524 37.1752C84.4492 31.1323 98.6251 27.0138 118.218 35.3406L119.782 31.6593C98.8747 22.7736 83.3006 27.1082 72.9725 33.8214C67.8532 37.149 64.0653 41.0292 61.558 44.0721C60.3023 45.596 59.3618 46.9171 58.7306 47.8654C58.4148 48.3398 58.1759 48.7216 58.0133 48.9897C57.9319 49.1238 57.8696 49.2295 57.8262 49.3043C57.8045 49.3416 57.7875 49.3713 57.7752 49.3928C57.7691 49.4036 57.7642 49.4124 57.7604 49.4191C57.7585 49.4224 57.7569 49.4253 57.7556 49.4276C57.755 49.4287 57.7542 49.4301 57.7539 49.4307C57.7532 49.4319 57.7526 49.433 59.4999 50.406ZM37.0395 53.4996C53.4936 53.1737 62.0488 58.6568 68.7861 64.0971C75.4315 69.4632 81.1609 75.8001 91.1607 74.9936L90.8392 71.0065C82.8389 71.6518 78.6253 66.9008 71.2991 60.985C64.0649 55.1435 54.6201 49.1506 36.9603 49.5003L37.0395 53.4996ZM122 70.5C120.777 72.0825 120.777 72.0825 120.777 72.0825C120.777 72.0825 120.777 72.0825 120.777 72.0826C120.777 72.0827 120.778 72.0829 120.778 72.0832C120.779 72.0837 120.78 72.0846 120.781 72.0859C120.785 72.0884 120.79 72.0923 120.796 72.0975C120.81 72.1081 120.831 72.1241 120.858 72.1455C120.913 72.1884 120.996 72.2529 121.106 72.3386C121.325 72.5101 121.652 72.7661 122.077 73.1026C122.928 73.7754 124.175 74.7695 125.754 76.0507C128.912 78.6133 133.395 82.3232 138.691 86.9064L141.309 83.8818C135.976 79.267 131.46 75.5298 128.275 72.9448C126.682 71.6523 125.422 70.6475 124.558 69.9649C124.127 69.6235 123.794 69.3627 123.569 69.1867C123.456 69.0987 123.37 69.0319 123.312 68.9869C123.283 68.9643 123.261 68.9472 123.246 68.9356C123.239 68.9298 123.233 68.9254 123.229 68.9224C123.227 68.9208 123.226 68.9197 123.225 68.9188C123.224 68.9184 123.224 68.9181 123.223 68.9179C123.223 68.9177 123.223 68.9176 123.223 68.9176C123.223 68.9175 123.223 68.9174 122 70.5ZM118.218 35.3406C132.061 41.2242 139.442 49.9432 143.283 58.6887C147.15 67.4924 147.487 76.4625 146.975 82.84L150.963 83.16C151.505 76.3967 151.171 66.6997 146.946 57.0801C142.695 47.4023 134.564 37.9417 119.782 31.6593L118.218 35.3406Z" fill="#2C2C34"/>
</svg>
